<?xml version="1.0" standalone="no"?>
<!DOCTYPE svg PUBLIC "-//W3C//DTD SVG 20010904//EN"
 "http://www.w3.org/TR/2001/REC-SVG-20010904/DTD/svg10.dtd">
<svg version="1.0" xmlns="http://www.w3.org/2000/svg"
 width="594.000000pt" height="420.000000pt" viewBox="0 0 594.000000 420.000000"
 preserveAspectRatio="xMidYMid meet">

<g transform="translate(0.000000,420.000000) scale(0.100000,-0.100000)"
fill="#000000" stroke="none">
<path d="M3867 3244 c-4 -4 -7 -69 -7 -144 l0 -137 148 -6 c81 -2 151 -2 155
2 4 4 6 70 5 147 l-3 139 -145 3 c-80 2 -149 0 -153 -4z"/>
<path d="M1092 3218 c-22 -29 -91 -293 -107 -415 -5 -37 -3 -53 5 -53 15 0 79
139 125 273 22 63 45 111 55 117 23 13 272 -5 346 -24 179 -47 351 -132 468
-232 133 -114 204 -221 266 -404 39 -114 40 -120 40 -256 0 -106 -4 -154 -19
-204 -46 -161 -109 -267 -229 -387 -63 -63 -162 -143 -177 -143 -8 0 -7 4 30
150 21 79 29 137 33 237 l4 132 57 54 c31 30 73 74 93 100 42 51 104 166 113
212 6 29 6 29 -10 10 -9 -11 -27 -41 -41 -67 -28 -55 -188 -220 -207 -212 -6
2 -27 66 -46 142 l-33 139 28 44 c39 61 40 146 2 205 -39 60 -86 86 -169 92
-58 4 -71 8 -84 28 -43 67 -215 210 -240 201 -8 -4 -15 -11 -15 -18 0 -6 43
-57 95 -112 53 -56 98 -112 101 -123 3 -13 -5 -41 -20 -70 -49 -93 -24 -199
62 -259 37 -25 52 -29 103 -28 71 1 69 5 99 -134 22 -100 25 -158 11 -167 -8
-5 -163 90 -266 164 -16 12 -142 95 -280 185 -231 151 -324 213 -455 305 -49
35 -49 36 -50 90 0 66 -29 124 -79 157 -40 27 -135 32 -179 9 -117 -61 -122
-233 -9 -299 52 -31 125 -36 167 -12 44 25 68 17 188 -63 64 -43 207 -138 317
-210 110 -72 205 -135 211 -140 6 -5 30 -22 55 -37 146 -92 392 -260 396 -272
8 -21 -18 -210 -31 -229 -11 -14 -16 -15 -37 -4 -22 12 -186 118 -324 210 -33
22 -91 60 -130 85 -38 24 -117 76 -175 115 -58 39 -130 87 -160 106 -69 46
-80 59 -80 103 0 51 -31 95 -84 121 -65 31 -123 22 -175 -28 -93 -90 -42 -239
88 -258 39 -6 53 -3 95 20 l49 28 27 -20 c28 -21 147 -100 290 -194 378 -246
549 -359 570 -376 24 -19 24 -22 11 -58 -32 -93 -47 -98 -186 -65 -278 67
-501 237 -619 471 -16 30 -34 62 -42 70 -40 42 1 -105 59 -210 123 -222 350
-381 603 -421 108 -16 111 -19 73 -88 -47 -83 -98 -158 -151 -224 -27 -32 -48
-63 -48 -67 0 -55 145 88 260 254 41 60 84 114 95 120 78 41 198 131 268 199
132 130 203 245 254 412 25 85 26 361 0 455 -24 87 -86 227 -133 298 -37 56
-182 207 -240 248 -91 66 -304 162 -429 193 -136 34 -433 53 -453 29z m-436
-324 c22 -6 54 -61 54 -94 0 -82 -105 -127 -174 -75 -22 17 -32 89 -17 128 15
40 75 58 137 41z m1134 -237 c68 -34 90 -132 45 -199 -73 -107 -255 -50 -255
79 0 27 28 82 54 108 25 26 116 32 156 12z m-965 -292 c35 -34 35 -106 0 -140
-28 -29 -88 -34 -121 -10 -28 19 -48 69 -40 101 18 71 111 100 161 49z"/>
<path d="M565 2830 c-15 -17 -16 -24 -7 -45 14 -30 33 -39 67 -31 29 7 42 45
25 75 -14 27 -61 28 -85 1z"/>
<path d="M1700 2623 c-61 -22 -82 -109 -37 -151 52 -49 147 -12 147 58 0 44
-16 70 -55 86 -19 8 -36 14 -37 13 -2 0 -10 -3 -18 -6z"/>
<path d="M722 2328 c-15 -15 -15 -51 0 -66 7 -7 25 -12 40 -12 36 0 56 36 39
69 -13 23 -59 29 -79 9z"/>
<path d="M2637 3124 c-3 -5 -6 -292 -8 -639 -3 -582 -2 -635 15 -690 42 -142
116 -233 238 -292 104 -52 273 -64 437 -32 101 20 226 113 274 204 59 111 60
114 66 378 3 136 5 252 3 257 -2 6 -60 10 -143 10 l-139 0 0 -137 c-1 -281
-24 -377 -104 -430 -116 -77 -256 -39 -315 86 l-26 56 0 330 0 330 365 0 365
0 3 99 c2 73 -1 102 -10 108 -7 5 -53 6 -101 2 -49 -3 -207 -3 -353 1 l-264 7
0 174 0 174 -112 0 c-62 0 -129 3 -149 6 -20 4 -39 2 -42 -2z"/>
<path d="M4795 2780 c-132 -24 -229 -73 -303 -155 -144 -157 -197 -451 -132
-731 42 -179 112 -289 235 -368 64 -41 94 -53 180 -71 223 -47 439 12 582 157
62 64 130 187 139 251 l7 47 -109 1 c-60 0 -128 2 -152 4 -46 4 -42 8 -72 -73
-16 -42 -74 -99 -125 -123 -48 -22 -170 -26 -218 -6 -41 18 -104 87 -129 144
-63 142 -66 383 -6 523 54 127 198 183 343 134 63 -22 132 -93 146 -151 l11
-42 152 -3 c83 -2 155 0 160 4 12 9 -18 138 -45 190 -85 169 -263 267 -499
274 -63 1 -137 -1 -165 -6z"/>
<path d="M3870 2760 c-13 -8 -20 -253 -22 -778 l-2 -504 153 0 c84 0 155 2
157 5 3 2 6 289 7 638 l2 634 -144 5 c-78 3 -146 3 -151 0z"/>
<path d="M3685 1247 c-3 -7 -4 -62 -3 -122 l3 -109 57 -3 c52 -3 58 -1 82 28
33 39 33 79 1 109 -27 25 -86 32 -93 12 -8 -26 -22 1 -22 43 0 43 -15 69 -25
42z m123 -109 c17 -17 15 -64 -4 -82 -22 -23 -71 -20 -84 3 -14 26 -13 64 2
79 16 16 70 16 86 0z"/>
<path d="M5403 1225 c-9 -24 0 -25 27 -5 l25 20 -23 0 c-12 0 -25 -7 -29 -15z"/>
<path d="M2574 1170 c-28 -11 -54 -48 -54 -77 0 -13 13 -37 28 -55 28 -31 30
-31 83 -22 l54 9 3 66 3 67 -36 6 c-20 4 -42 9 -48 11 -7 2 -22 0 -33 -5z m74
-32 c17 -17 15 -73 -2 -87 -8 -7 -30 -11 -48 -9 -25 2 -35 9 -42 30 -15 43 6
78 47 78 18 0 38 -5 45 -12z"/>
<path d="M5360 1163 c-29 -20 -40 -64 -25 -100 23 -55 82 -69 129 -32 21 16
26 29 26 63 0 28 -6 48 -17 58 -24 21 -89 27 -113 11z m98 -25 c32 -32 0 -98
-48 -98 -34 0 -50 17 -50 55 0 17 5 36 12 43 16 16 70 16 86 0z"/>
<path d="M3112 1161 c-16 -10 -13 -147 3 -144 6 2 12 31 15 65 4 49 9 64 22
66 14 3 18 -7 20 -62 2 -37 8 -66 13 -66 6 0 12 28 15 62 4 47 9 64 21 66 19
4 29 -24 29 -86 0 -24 4 -41 9 -37 9 5 6 105 -4 133 -5 14 -122 17 -143 3z"/>
<path d="M4285 1150 c-45 -50 -6 -140 61 -140 70 0 111 94 62 140 -30 28 -98
28 -123 0z m103 -12 c16 -16 15 -59 -2 -81 -22 -29 -78 -19 -90 15 -15 43 6
78 47 78 18 0 38 -5 45 -12z"/>
<path d="M4849 1148 c-12 -23 -8 -128 6 -128 6 0 11 22 13 50 2 37 8 54 23 63
26 16 24 24 -6 30 -18 3 -29 -1 -36 -15z"/>
<path d="M1980 1151 c0 -5 10 -30 21 -56 20 -45 20 -50 5 -82 -18 -39 -20 -53
-6 -53 12 0 102 191 94 199 -6 6 -27 -18 -51 -55 -10 -18 -12 -16 -23 13 -10
29 -40 54 -40 34z"/>
</g>
</svg>
